<?xml version="1.0" encoding="UTF-8"?>
<svg version="1.1" xmlns="http://www.w3.org/2000/svg" width="59" height="62">
<path d="M0 0 C2.1875 0.3125 2.1875 0.3125 4 1 C4.93065133 3.60582371 5.14917407 4.64198224 4.0625 7.25 C3.711875 7.8275 3.36125 8.405 3 9 C4.32 9 5.64 9 7 9 C7.33 9.66 7.66 10.32 8 11 C10.01669827 12.13350534 10.01669827 12.13350534 12 13 C11.34 14.32 10.68 15.64 10 17 C9.01 16.67 8.02 16.34 7 16 C7 15.34 7 14.68 7 14 C5.56274129 13.83126522 4.12518162 13.66509263 2.6875 13.5 C1.88699219 13.4071875 1.08648437 13.314375 0.26171875 13.21875 C-2.11896555 12.95186537 -2.11896555 12.95186537 -5 13 C-5 12.01 -5 11.02 -5 10 C-3.68 9.67 -2.36 9.34 -1 9 C-1 8.34 -1 7.68 -1 7 C-1.99 7.66 -2.98 8.32 -4 9 C-6.1875 8.625 -6.1875 8.625 -8 8 C-8.625 6.125 -8.625 6.125 -9 4 C-8.34 3.34 -7.68 2.68 -7 2 C-6.360625 2.185625 -5.72125 2.37125 -5.0625 2.5625 C-4.381875 2.706875 -3.70125 2.85125 -3 3 C-2.505 2.505 -2.01 2.01 -1.5 1.5 C-1.005 1.005 -0.51 0.51 0 0 Z " fill="#39B0D0" transform="translate(28,8)"/>
<path d="M0 0 C1.65 0.33 3.3 0.66 5 1 C5.33 1.99 5.66 2.98 6 4 C6.78375 3.938125 7.5675 3.87625 8.375 3.8125 C9.674375 3.9053125 9.674375 3.9053125 11 4 C13.15502531 7.23253796 13.46856135 8.25150923 13 12 C11.8125 13.875 11.8125 13.875 10 15 C7.4375 14.875 7.4375 14.875 5 14 C3 11 3 11 3 7 C1.08333079 4.74934898 1.08333079 4.74934898 -1 3 C-0.67 2.01 -0.34 1.02 0 0 Z " fill="#52607E" transform="translate(39,42)"/>
<path d="M0 0 C2.5 0.25 2.5 0.25 4.5 2.25 C4.83661952 5.4142235 4.99943411 7.43513382 3.3125 10.1875 C1.5 11.25 1.5 11.25 -1.0625 11.125 C-3.5 10.25 -3.5 10.25 -5.5 7.25 C-5.09989413 3.14891484 -4.53497895 0.4534979 0 0 Z " fill="#37AFCF" transform="translate(11.5,5.75)"/>
<path d="M0 0 C1.32 0.66 2.64 1.32 4 2 C3.67 3.65 3.34 5.3 3 7 C2.21625 6.95875 1.4325 6.9175 0.625 6.875 C-2.16116119 6.71271266 -2.16116119 6.71271266 -4 9 C-6.625 8.625 -6.625 8.625 -9 8 C-9 6.35 -9 4.7 -9 3 C-4.25 2 -4.25 2 -2 2 C-1.34 1.34 -0.68 0.68 0 0 Z " fill="#394A6C" transform="translate(35,45)"/>
<path d="M0 0 C2.5625 0.1875 2.5625 0.1875 4.5625 2.1875 C4.1875 5.8125 4.1875 5.8125 3.5625 9.1875 C1.25 9.875 1.25 9.875 -1.4375 10.1875 C-3.3125 9.125 -3.3125 9.125 -4.4375 7.1875 C-3.88641641 0.29895511 -3.88641641 0.29895511 0 0 Z " fill="#334467" transform="translate(52.4375,36.8125)"/>
<path d="M0 0 C2.5 1.1875 2.5 1.1875 5 3 C5.625 5.5 5.625 5.5 5 8 C2.5 9.8125 2.5 9.8125 0 11 C-2.0625 9.3125 -2.0625 9.3125 -4 7 C-3.9375 4.375 -3.9375 4.375 -3 2 C-2.01 1.34 -1.02 0.68 0 0 Z " fill="#35AFCF" transform="translate(5,15)"/>
<path d="M0 0 C0.99 0.33 1.98 0.66 3 1 C3.70125 1.144375 4.4025 1.28875 5.125 1.4375 C5.74375 1.623125 6.3625 1.80875 7 2 C7.33 2.66 7.66 3.32 8 4 C10.01669827 5.13350534 10.01669827 5.13350534 12 6 C11.34 7.32 10.68 8.64 10 10 C9.01 9.67 8.02 9.34 7 9 C7 8.34 7 7.68 7 7 C5.56274129 6.83126522 4.12518162 6.66509263 2.6875 6.5 C1.48673828 6.36078125 1.48673828 6.36078125 0.26171875 6.21875 C-2.11896555 5.95186537 -2.11896555 5.95186537 -5 6 C-5 5.01 -5 4.02 -5 3 C-4.360625 2.87625 -3.72125 2.7525 -3.0625 2.625 C-2.0415625 2.315625 -2.0415625 2.315625 -1 2 C-0.67 1.34 -0.34 0.68 0 0 Z " fill="#53BAD5" transform="translate(28,15)"/>
<path d="M0 0 C2.625 -0.1875 2.625 -0.1875 5 0 C5.66 1.65 6.32 3.3 7 5 C5.68 6.32 4.36 7.64 3 9 C-0.75283733 7.54728878 -0.75283733 7.54728878 -1.875 5.0625 C-2 3 -2 3 0 0 Z " fill="#3C4C6E" transform="translate(52,27)"/>
<path d="M0 0 C2.625 0.375 2.625 0.375 5 1 C5.6875 3.3125 5.6875 3.3125 6 6 C4.5625 7.8125 4.5625 7.8125 3 9 C0.525 8.01 0.525 8.01 -2 7 C-2.125 4.625 -2.125 4.625 -2 2 C-1.34 1.34 -0.68 0.68 0 0 Z " fill="#3CB1D0" transform="translate(2,27)"/>
<path d="M0 0 C1.65 0.33 3.3 0.66 5 1 C5.625 3.875 5.625 3.875 6 7 C5.34 7.66 4.68 8.32 4 9 C1.375 8.625 1.375 8.625 -1 8 C-2.2077558 4.37673261 -1.54311128 3.35853631 0 0 Z " fill="#334468" transform="translate(45,48)"/>
<path d="M0 0 C2.2458579 1.04271974 4.10978043 2.08649367 6.0625 3.625 C8.0117832 5.2893735 8.0117832 5.2893735 11 5 C10.67 6.32 10.34 7.64 10 9 C7.6568787 8.74438677 5.32156597 8.40729228 3 8 C2.67 7.34 2.34 6.68 2 6 C1.01 5.67 0.02 5.34 -1 5 C-0.67 3.35 -0.34 1.7 0 0 Z " fill="#6C7892" transform="translate(20,37)"/>
<path d="M0 0 C1.67542976 0.28604898 3.34385343 0.61781233 5 1 C5 2.98 5 4.96 5 7 C2.625 7.625 2.625 7.625 0 8 C-0.66 7.34 -1.32 6.68 -2 6 C-1.44444444 1.44444444 -1.44444444 1.44444444 0 0 Z " fill="#2BABCD" transform="translate(4,38)"/>
<path d="M0 0 C1.32 0.66 2.64 1.32 4 2 C4.042721 3.66611905 4.04063832 5.33382885 4 7 C3 8 3 8 0.4375 8.0625 C-0.366875 8.041875 -1.17125 8.02125 -2 8 C-2.33 6.02 -2.66 4.04 -3 2 C-2.01 1.34 -1.02 0.68 0 0 Z " fill="#405071" transform="translate(52,16)"/>
<path d="M0 0 C2 0.1875 2 0.1875 4 1 C4.66 1.99 5.32 2.98 6 4 C4.75 5.5625 4.75 5.5625 3 7 C0.8125 6.6875 0.8125 6.6875 -1 6 C-1.625 4.125 -1.625 4.125 -2 2 C-1.34 1.34 -0.68 0.68 0 0 Z " fill="#4FB8D4" transform="translate(21,10)"/>
<path d="M0 0 C1.32 0.66 2.64 1.32 4 2 C3.67 3.65 3.34 5.3 3 7 C1.02 7 -0.96 7 -3 7 C-2.25 2.25 -2.25 2.25 0 0 Z " fill="#52607E" transform="translate(35,45)"/>
<path d="M0 0 C2.5 -0.3125 2.5 -0.3125 5 0 C7 2 7 2 7.125 4.625 C7.08375 5.40875 7.0425 6.1925 7 7 C6.34 7 5.68 7 5 7 C4.67 5.68 4.34 4.36 4 3 C0.88667752 3.66868314 0.88667752 3.66868314 -0.1875 6.0625 C-0.455625 6.701875 -0.72375 7.34125 -1 8 C-1.625 5.6875 -1.625 5.6875 -2 3 C-1.34 2.01 -0.68 1.02 0 0 Z " fill="#546280" transform="translate(50,37)"/>
<path d="M0 0 C1.65 0.33 3.3 0.66 5 1 C5 2.65 5 4.3 5 6 C3.125 6.625 3.125 6.625 1 7 C0.34 6.34 -0.32 5.68 -1 5 C-0.625 2.375 -0.625 2.375 0 0 Z " fill="#45B5D2" transform="translate(9,48)"/>
<path d="M0 0 C1.67542976 0.28604898 3.34385343 0.61781233 5 1 C4.67 2.65 4.34 4.3 4 6 C2.68 6 1.36 6 0 6 C-0.38218767 4.34385343 -0.71395102 2.67542976 -1 1 C-0.67 0.67 -0.34 0.34 0 0 Z " fill="#4B5A79" transform="translate(45,8)"/>
<path d="M0 0 C0.99 0.33 1.98 0.66 3 1 C3.33 2.65 3.66 4.3 4 6 C1.03 6 -1.94 6 -5 6 C-5 5.01 -5 4.02 -5 3 C-4.360625 2.87625 -3.72125 2.7525 -3.0625 2.625 C-2.0415625 2.315625 -2.0415625 2.315625 -1 2 C-0.67 1.34 -0.34 0.68 0 0 Z " fill="#76C8DE" transform="translate(28,15)"/>
<path d="M0 0 C1.32 0.66 2.64 1.32 4 2 C3.67 3.32 3.34 4.64 3 6 C1.68 6 0.36 6 -1 6 C-1.625 4.125 -1.625 4.125 -2 2 C-1.34 1.34 -0.68 0.68 0 0 Z " fill="#51B9D5" transform="translate(16,14)"/>
<path d="M0 0 C1.98 0.495 1.98 0.495 4 1 C3.67 2.65 3.34 4.3 3 6 C1.68 5.67 0.36 5.34 -1 5 C-0.67 3.35 -0.34 1.7 0 0 Z " fill="#546280" transform="translate(37,2)"/>
<path d="M0 0 C0.99 0.33 1.98 0.66 3 1 C3 2.65 3 4.3 3 6 C1.35 5.67 -0.3 5.34 -2 5 C-1.125 1.125 -1.125 1.125 0 0 Z " fill="#48B6D3" transform="translate(19,54)"/>
<path d="M0 0 C1.65 0.33 3.3 0.66 5 1 C4.67 2.32 4.34 3.64 4 5 C2.68 5 1.36 5 0 5 C-0.33 4.01 -0.66 3.02 -1 2 C-0.67 1.34 -0.34 0.68 0 0 Z " fill="#5F6C88" transform="translate(43,36)"/>
<path d="M0 0 C1.98 0.495 1.98 0.495 4 1 C3.67 2.32 3.34 3.64 3 5 C1.68 5 0.36 5 -1 5 C-0.67 3.35 -0.34 1.7 0 0 Z " fill="#56BBD6" transform="translate(12,21)"/>
<path d="M0 0 C2.31 0.33 4.62 0.66 7 1 C6.67 2.32 6.34 3.64 6 5 C4.02 4.34 2.04 3.68 0 3 C0 2.01 0 1.02 0 0 Z " fill="#4E5D7C" transform="translate(24,41)"/>
<path d="M0 0 C1.67542976 0.28604898 3.34385343 0.61781233 5 1 C5 2.98 5 4.96 5 7 C4.34 5.68 3.68 4.36 3 3 C1.68 3 0.36 3 -1 3 C-1.33 3.99 -1.66 4.98 -2 6 C-1.125 1.125 -1.125 1.125 0 0 Z " fill="#69C3DB" transform="translate(4,38)"/>
<path d="M0 0 C2.625 -0.1875 2.625 -0.1875 5 0 C4.67 0.99 4.34 1.98 4 3 C3.01 3 2.02 3 1 3 C0.34 4.32 -0.32 5.64 -1 7 C-1.625 5.1875 -1.625 5.1875 -2 3 C-1.34 2.01 -0.68 1.02 0 0 Z " fill="#556381" transform="translate(52,27)"/>
<path d="M0 0 C1.32 0 2.64 0 4 0 C3.67 1.65 3.34 3.3 3 5 C2.01 4.67 1.02 4.34 0 4 C0 2.68 0 1.36 0 0 Z " fill="#58BCD7" transform="translate(10,29)"/>
<path d="M0 0 C0.99 0.33 1.98 0.66 3 1 C3 2.32 3 3.64 3 5 C1.68 4.67 0.36 4.34 -1 4 C-0.67 2.68 -0.34 1.36 0 0 Z " fill="#57BCD7" transform="translate(28,57)"/>
<path d="M0 0 C1.98 0.495 1.98 0.495 4 1 C3.34 2.32 2.68 3.64 2 5 C1.01 4.34 0.02 3.68 -1 3 C-0.67 2.01 -0.34 1.02 0 0 Z " fill="#576582" transform="translate(45,29)"/>
<path d="M0 0 C1.32 0.33 2.64 0.66 4 1 C3.34 2.32 2.68 3.64 2 5 C3.32 5.33 4.64 5.66 6 6 C4.35 6 2.7 6 1 6 C0.67 4.02 0.34 2.04 0 0 Z " fill="#576683" transform="translate(49,18)"/>
<path d="M0 0 C0.99 0.33 1.98 0.66 3 1 C3 2.32 3 3.64 3 5 C1.68 4.67 0.36 4.34 -1 4 C-0.67 2.68 -0.34 1.36 0 0 Z " fill="#5D6B87" transform="translate(28,0)"/>
<path d="M0 0 C0.66 0.33 1.32 0.66 2 1 C1.67 2.32 1.34 3.64 1 5 C0.01 4.67 -0.98 4.34 -2 4 C-1.34 2.68 -0.68 1.36 0 0 Z " fill="#6AC3DB" transform="translate(13,36)"/>
<path d="M0 0 C1.32 0 2.64 0 4 0 C3.67 1.32 3.34 2.64 3 4 C2.01 3.67 1.02 3.34 0 3 C0 2.01 0 1.02 0 0 Z " fill="#6E7993" transform="translate(43,22)"/>
<path d="M0 0 C0.99 0.33 1.98 0.66 3 1 C2.67 1.99 2.34 2.98 2 4 C1.01 3.67 0.02 3.34 -1 3 C-0.67 2.01 -0.34 1.02 0 0 Z " fill="#8AD0E2" transform="translate(16,43)"/>
<path d="M0 0 C1.32 0.33 2.64 0.66 4 1 C3.67 1.66 3.34 2.32 3 3 C2.01 3 1.02 3 0 3 C0 2.01 0 1.02 0 0 Z " fill="#63C0D9" transform="translate(37,56)"/>
<path d="M0 0 C0.99 0 1.98 0 3 0 C2.67 1.32 2.34 2.64 2 4 C1.34 3.67 0.68 3.34 0 3 C0 2.01 0 1.02 0 0 Z " fill="#5C6985" transform="translate(32,41)"/>
<path d="M0 0 C0.99 0.33 1.98 0.66 3 1 C2.67 1.99 2.34 2.98 2 4 C1.34 4 0.68 4 0 4 C0 2.68 0 1.36 0 0 Z " fill="#7E889F" transform="translate(36,38)"/>
<path d="M0 0 C0.99 0 1.98 0 3 0 C2.67 1.32 2.34 2.64 2 4 C1.34 3.67 0.68 3.34 0 3 C0 2.01 0 1.02 0 0 Z " fill="#64708C" transform="translate(18,3)"/>
<path d="M0 0 C0.99 0 1.98 0 3 0 C3 0.99 3 1.98 3 3 C2.01 3 1.02 3 0 3 C0 2.01 0 1.02 0 0 Z " fill="#6B7690" transform="translate(40,16)"/>
<path d="M0 0 C0.99 0 1.98 0 3 0 C2.67 0.99 2.34 1.98 2 3 C1.34 3 0.68 3 0 3 C0 2.01 0 1.02 0 0 Z " fill="#60BFD8" transform="translate(20,21)"/>
<path d="M0 0 C0.66 0.33 1.32 0.66 2 1 C2 1.66 2 2.32 2 3 C1.01 3 0.02 3 -1 3 C-0.67 2.01 -0.34 1.02 0 0 Z " fill="#7F899F" transform="translate(39,34)"/>
<path d="M0 0 C0.66 0 1.32 0 2 0 C2 0.99 2 1.98 2 3 C1.01 2.67 0.02 2.34 -1 2 C-0.67 1.34 -0.34 0.68 0 0 Z " fill="#7ECADF" transform="translate(18,25)"/>
<path d="M0 0 C0.99 0 1.98 0 3 0 C3 0.66 3 1.32 3 2 C2.01 2 1.02 2 0 2 C0 1.34 0 0.68 0 0 Z " fill="#83CDE0" transform="translate(21,48)"/>
<path d="M0 0 C0.99 0 1.98 0 3 0 C3 0.66 3 1.32 3 2 C2.01 2 1.02 2 0 2 C0 1.34 0 0.68 0 0 Z " fill="#99A1B3" transform="translate(39,30)"/>
<path d="M0 0 C0.66 0 1.32 0 2 0 C2 0.99 2 1.98 2 3 C1.34 3 0.68 3 0 3 C0 2.01 0 1.02 0 0 Z " fill="#848EA3" transform="translate(35,12)"/>
<path d="M0 0 C0.66 0 1.32 0 2 0 C2 0.66 2 1.32 2 2 C1.34 2 0.68 2 0 2 C0 1.34 0 0.68 0 0 Z " fill="#A0D8E7" transform="translate(18,35)"/>
<path d="M0 0 C0.66 0 1.32 0 2 0 C2 0.66 2 1.32 2 2 C1.34 2 0.68 2 0 2 C0 1.34 0 0.68 0 0 Z " fill="#6EC4DB" transform="translate(17,30)"/>
<path d="M0 0 C0.66 0.66 1.32 1.32 2 2 C1.34 2 0.68 2 0 2 C0 1.34 0 0.68 0 0 Z " fill="#9CA4B5" transform="translate(39,25)"/>
</svg>
